<svg viewBox="0 0 100 100" preserveAspectRatio="xMidYMid meet" style="pointer-events: none; display: block; width: 100%; height: 100%;" xmlns="http://www.w3.org/2000/svg"><g >
			<path fill="-65536" d="M50,31.9C40,31.9,31.9,40,31.9,50c0,10,8.1,18.1,18.1,18.1c10,0,18.1-8.1,18.1-18.1C68.1,40,60,31.9,50,31.9
			z M50,0C22.4,0,0,22.4,0,50c0,27.6,22.4,50,50,50c27.6,0,50-22.4,50-50C100,22.4,77.6,0,50,0z M74,74c-6.2,6.1-14.6,9.9-24,9.9
			c-9.4,0-17.8-3.8-24-9.9c-6.1-6.2-9.9-14.6-9.9-24c0-9.4,3.8-17.8,9.9-24c6.2-6.1,14.6-9.9,24-9.9c9.4,0,17.8,3.8,24,9.9
			c6.1,6.2,9.9,14.6,9.9,24C83.9,59.4,80.1,67.8,74,74z"></path>
			<rect y="0" fill="none" width="100" height="100"></rect>
		</g></svg>
    
  