<svg viewBox="0 0 100 100" preserveAspectRatio="xMidYMid meet" style="pointer-events: none; display: block; width: 100%; height: 100%;" xmlns="http://www.w3.org/2000/svg"><g>
			<rect x="0" y="0" fill="none" width="100" height="100" ></rect>
			<path fill="-65536" fill-rule="evenodd" clip-rule="evenodd" d="m 0,91.7 c 0,4.6 3.7,8.3 8.3,8.3 l 83.3,0 c 4.6,0 8.3,-3.7 8.3,-8.3 l 0,-83.4 C 99.9,3.7 96.2,0 91.6,0 L 8.3,0 C 3.7,0 0,3.7 0,8.3 Z m 50,-4.8 c -19.3,0 -35,-15.7 -35,-35 0,-10.4 4.6,-19.7 11.8,-26.1 1.5,-1 4,-1.8 7.2,0.3 0,0 3.4,4.3 0,8.6 -3.878301,5.764602 -7.293417,10.813228 -7.4,17.3 0,12.9 10.4,23.3 23.3,23.3 12.9,0 23.3,-10.4 23.3,-23.3 -0.734235,-6.759576 -3.732412,-13.551544 -7.6,-17.3 -3.3,-4.3 0,-8.6 0,-8.6 3.5,-2.2 6.2,-1.1 7.6,0 7.3,6.4 11.8,15.6 11.8,25.8 0,19.4 -15.7,35 -35,35 m 0,-23.2 c -3.2,0 -5.8,-2.6 -5.8,-5.8 l 0,-39 c 0,-3.2 2.6,-5.8 5.8,-5.8 3.2,0 5.8,2.6 5.8,5.8 l 0,39 c 0,3.2 -2.6,5.8 -5.8,5.8" ></path>
		</g></svg>