<svg viewBox="0 0 100 100" preserveAspectRatio="xMidYMid meet" style="pointer-events: none; display: block; width: 100%; height: 100%;" xmlns="http://www.w3.org/2000/svg"><g >
			<rect x="0" fill="none" width="100" height="100"></rect>
			<path fill="-65536" d="M50,50c-4,0-7.1-3.2-7.1-7.1V7.1c0-4,3.2-7.1,7.1-7.1s7.1,3.2,7.1,7.1v35.7C57.1,46.8,54,50,50,50z"></path>
			<path fill="-65536" d="M77.5,8.2L77.5,8.2c-1.1-0.7-2.4-1.1-3.8-1.1c-4,0-7.1,3.2-7.1,7.1c0,1.4,0.4,2.7,1.1,3.8c0.4,0.7,1,1.4,1.7,1.9
				c0.3,0.2,0.5,0.4,0.8,0.6c1.8,1.3,3.5,2.7,5.1,4.3C82,31.5,85.7,40.5,85.7,50S82,68.5,75.2,75.2C68.5,82,59.5,85.7,50,85.7
				S31.5,82,24.8,75.2C18,68.5,14.3,59.5,14.3,50S18,31.5,24.8,24.8c1.6-1.6,3.3-3,5.1-4.2c0.3-0.2,0.6-0.4,0.9-0.6
				c0.7-0.5,1.2-1.1,1.7-1.9c0.7-1.1,1.1-2.4,1.1-3.8c0-4-3.2-7.1-7.1-7.1c-1.4,0-2.7,0.4-3.8,1.1l0,0C9,17.1,0,32.5,0,50
				c0,27.6,22.4,50,50,50s50-22.4,50-50C100,32.5,91,17.1,77.5,8.2z"></path>
		</g></svg>
    
  