<svg viewBox="0 0 100 100" preserveAspectRatio="xMidYMid meet" style="pointer-events: none; display: block; width: 100%; height: 100%;" xmlns="http://www.w3.org/2000/svg"><g >
			<path fill="-1" d="M16,34.9c4.7-3.6,8.6-1.1,13.8,4.9c0.6,0.7,1.4-0.1,1.8-0.5c0.4-0.4,7.3-6.5,7.6-6.8
			c0.3-0.3,0.7-0.8,0.2-1.5c-0.5-0.6-2.5-3.1-3.7-4.8C26.6,14.3,60.5,6.3,55.3,6.1c-2.6-0.1-13.3-0.2-14.9,0
			c-6.4,0.7-14.5,6.7-18.6,9.5c-5.3,3.7-7.3,5.8-7.6,6.1c-1.5,1.3-0.2,4.4-3,6.7c-2.9,2.5-4.7,0.6-6.4,2.1C4,31.3,1.7,33,1.1,33.6
			c-0.7,0.6-0.8,1.6-0.1,2.4c0,0,6.3,7,6.9,7.6c0.5,0.6,2,1.1,2.8,0.4c0.9-0.8,3.2-2.8,3.6-3.1C14.6,40.5,14,36.5,16,34.9z
			M44.7,37.5c-0.6-0.7-1.3-0.7-2-0.1l-7.2,6.3c-0.6,0.5-0.6,1.4-0.1,2L77,93c1,1.1,2.7,1.2,3.8,0.3l4.9-4.1c1.1-1,1.2-2.7,0.3-3.8
			L44.7,37.5z M100.2,17.3c-0.4-2.5-1.7-2-2.3-0.9c-0.7,1.1-3.6,5.5-4.8,7.6c-1.2,2-4.2,6-9.7,2.1c-5.8-4.1-3.8-6.9-2.8-8.8
			c1-1.9,4.1-7.3,4.6-8c0.4-0.7-0.1-2.6-1.9-1.8c-1.8,0.8-12.7,5.2-14.2,11.3c-1.5,6.3,1.3,11.9-4.3,17.5l-6.7,7l6.8,7.9l8.3-7.9
			c2-2,6.2-3.9,10-3.1c8.2,1.9,12.7-1.2,15.4-6.3C101,29.4,100.6,19.8,100.2,17.3z M14,85.9c-1,1.1-1,2.8,0,3.8l4.8,4.7
			c1,1.1,2.7,0.6,3.7-0.4l24.6-24.2l-7.6-8.6L14,85.9z"></path>
			<rect y="0" fill="none" width="100" height="100"></rect>
		</g></svg>
    
  